# xmcd CD database file
# Copyright (C) 1993-1998 Ti Kan
#
# Track frame offsets:
#	183
#	14500
#	27928
#	40665
#	56423
#	73635
#	84473
#	99058
#	113333
#	132395
#	151530
#	193243
#	217118
#	230928
#
# Disc length: 3255 seconds
#
# Revision: 1
# Processed by: cddbd v1.4b41PL1 Copyright (c) Steve Scherf et al.
# Submitted via: CDValet v3.01 - Copyright (c) 1997 Greg Leichner
#
DISCID=b30cb50e
DTITLE=Dorival Caymmi - Minha Historia
DYEAR=1900
DGENRE=
TTITLE0=Saudade Da Bahia
TTITLE1=Modinha Para Gabriela
TTITLE2=Coqueiro De Itapua
TTITLE3=Nesta Rua Tao Deserta
TTITLE4=Sabado Em Copacabana
TTITLE5=O Samba Da Minha Terra
TTITLE6=So Louco
TTITLE7=Joao Valentao
TTITLE8=Nunca Mais/ Dora/ Eu Nao Tenho Onde Morar
TTITLE9=Dois De Fevereiro
TTITLE10=Historia Dos Pescadores
TTITLE11=Ora ao De Mae Menininha
TTITLE12=Voce Ja Foi A Bahia ?
TTITLE13=Maracangalha
EXTD=
EXTT0=
EXTT1=
EXTT2=
EXTT3=
EXTT4=
EXTT5=
EXTT6=
EXTT7=
EXTT8=
EXTT9=
EXTT10=
EXTT11=
EXTT12=
EXTT13=
PLAYORDER=
